<?xml version="1.0" encoding="utf-8"?>
<!-- Generator: Adobe Illustrator 22.0.1, SVG Export Plug-In . SVG Version: 6.00 Build 0)  -->
<svg version="1.1" id="Layer_1" xmlns="http://www.w3.org/2000/svg" xmlns:xlink="http://www.w3.org/1999/xlink" x="0px" y="0px"
	 viewBox="0 0 692 227.4" style="enable-background:new 0 0 692 227.4;" xml:space="preserve">
<title>Artboard 12</title>
<path d="M402,171.6c0.6,0.4,0.9,1.1,0.9,1.9v0.9l-2.7,9.6h-2.9l2.7-9.2v-0.7c0-0.8-0.3-1.2-1-1.2h-3l-3.2,11h-2.7l3.1-11h-4.6l-3,11
	h-2.9l3.7-12.9h14.3C401.1,171.1,401.6,171.3,402,171.6L402,171.6z"/>
<path d="M417.1,174.9c0.1-0.2,0.2-0.4,0.2-0.7c0-0.8-0.3-1.2-1-1.2h-6.5l-2,7.3v0.7c0,0.7,0.2,1.2,0.9,1.2h6.4L417.1,174.9
	L417.1,174.9z M419.3,171.6c0.5,0.5,0.8,1.2,0.9,1.9c0,0.3,0,0.6-0.2,0.9l-2.7,9.6h-10c-0.6,0.1-1.2-0.2-1.5-0.7
	c-0.6-0.4-0.9-1.1-0.9-1.9v-0.7l2.9-9.7h10C418.3,171.1,418.8,171.3,419.3,171.6L419.3,171.6z"/>
<polygon points="438,171.1 434.4,184 427.1,184 422.9,177.6 424.7,171.1 427.4,171.1 425.6,177.6 428.4,182.2 432.2,182.2 
	435.2,171.1 "/>
<path d="M444.2,173.5c-0.4,0.3-0.7,0.8-0.9,1.4l-0.9,2.7h6.6c0.4,0,0.8-0.1,1.2-0.3c0.3-0.4,0.5-0.8,0.7-1.2l0.7-3.1h-6.5
	C444.9,173,444.5,173.2,444.2,173.5L444.2,173.5z M441.7,180.8c-0.2,0.7,0.2,1,0.9,1h9.3l-0.5,2.2h-10.9c-0.9,0.1-1.8-0.6-1.9-1.5
	c0-0.1,0-0.2,0-0.4l2.4-7.8c0.4-1,1-1.9,1.9-2.5c0.6-0.4,1.3-0.7,2-0.7h9.9l-1.7,5.9c-0.2,0.5-0.4,0.9-0.7,1.4c-0.3,0.6-1,1-1.7,1
	H442L441.7,180.8z"/>
<path d="M476.1,174.9v-0.7c0-0.8-0.3-1.2-0.9-1.2h-6.5l-2,7.3c-0.1,0.2-0.2,0.4-0.2,0.7c0,0.7,0.3,1.2,1,1.2h6.3L476.1,174.9
	L476.1,174.9z M478.1,171.6c0.6,0.4,0.9,1.1,0.9,1.9v0.9l-2.9,9.6h-10c-0.6,0-1.1-0.2-1.5-0.7c-0.6-0.4-0.9-1.1-0.9-1.9
	c0-0.3,0-0.5,0.2-0.7l2.7-9.7h10C477.2,171.1,477.7,171.3,478.1,171.6L478.1,171.6z"/>
<path d="M495.3,171.6c0.6,0.4,0.9,1.1,0.9,1.9v0.9l-2.7,9.6h-2.9l2.7-9.2v-0.7c0-0.8-0.3-1.2-1-1.2H486l-3.2,11H480l3.7-12.9h10
	C494.3,171,494.8,171.2,495.3,171.6L495.3,171.6z"/>
<path d="M234,160.8l5.3-21.6c0,0-2.2,0.2-2.9-0.5c-0.5-0.3-0.9-1.2-1.2-1.5c-0.4-0.6-0.7-1.3-1-2h6.1c0,0,1.5-7,3.9-8.8
	c2.5-2.4,5.3-1.7,9.3-1.7h13.8c-0.3,0.8-0.7,1.5-1.2,2.2c-0.4,0.6-1,0.9-1.7,1h-7.5c-1,0-2.6-0.2-3.2,0.3c-0.7,0.6-1.2,1.4-1.4,2.4
	c-0.3,1-1.4,4.6-1.4,4.6h11.7c-0.3,0.8-0.7,1.5-1.2,2.2c-0.5,0.9-1.5,1.9-2,1.9l-9.3-0.2l-5.3,21.7L234,160.8z"/>
<path d="M266.1,135.2c0,0,0.9,1.7,1.4,2.5c0.4,0.6,1.1,1.1,1.9,1.4c0.5,0.2,6.3,0,8,0c1.5,0,6.8-0.2,8.1,0.5c1,0.4,1.4,1.6,0.9,2.5
	c0,0.1-0.1,0.1-0.1,0.2c-0.6,1.5-2,2.4-3.6,2.4h-13.1c-0.9,0-4.6-0.2-6.5,1.2c-1.3,1-2.3,2.4-2.7,4.1c-0.5,1.4-1.2,3.7-1.4,4.4
	s-0.7,3.2-0.3,4.1c0.2,1,0.2,2,2.9,2.2c2.5,0.2,6.6,0.2,8.3,0.2c1.5,0,6.3,0,7.1-0.3c0.8-0.4,1.4-1,1.9-1.7l1-1.5
	c0,0-4.9,0.2-6.1,0.2c-1.1,0-2.2-0.3-3.2-0.8c-0.5-0.3-1-1.2-0.5-2.7c0.3-1.5,0.5-2.4,0.7-3c0.2-0.8,0.6-1.5,1-2.2
	c0.8-0.7,1.8-1,2.9-1H285l-3.2,13.2h10.7l4.4-17.9c0.3-1.6,0.5-3.3,0.3-4.9c-0.3-1.5-1.9-2.9-5.3-2.9L266.1,135.2z"/>
<path d="M334.8,135.3h-22.1c-0.3,0-4.8-0.3-7.3,1.5c-1.6,1.2-2.7,3-3,4.9c-0.5,1.4-1.4,4.9-1.5,5.4c0,0.5-0.3,2.4,0,2.9
	c0.5,1.2,1.8,1.8,3.1,1.7c2.4,0,7.3-0.2,9.8-0.2s5.3,0,5.9,0.3c1,0.2,1.7,1,1.9,2c0,1-0.2,2.6-0.8,3.1s-7,0.3-8.3,0.3h-14.9
	c0.3,1.1,1,2,1.9,2.7c1.2,1,6.3,0.7,8.3,0.7h14.8c2,0.1,3.9-0.5,5.6-1.5c2-1.5,2.9-3.1,3.9-6.6c0.8-3.6,1-3.6,1.2-4.8
	s0.3-1.9-0.5-2.7c-0.5-1-2.5-1.2-5.1-1.2h-11.4c-0.7,0-3.2,0-4.1-1c-0.6-0.6-0.8-1.5-0.5-2.4c0.2-0.5,0.5-1.5,4.3-1.5h14.4
	c1.1,0.1,2.2-0.2,3-1C333.9,137,334.8,135.3,334.8,135.3L334.8,135.3z"/>
<path d="M346.1,128.9H357l-1.7,6.3h11.4c-0.2,1-0.6,1.9-1.2,2.7c-0.9,1.2-2.4,1.2-3.2,1.4h-7.8c0,0-3.2,13.1-3.4,13.6
	c-0.3,1-0.5,2-0.5,3.1c0.3,0.5,1.2,1.7,5.1,1.5h6.6c-0.4,0.8-0.8,1.5-1.4,2.2c-0.3,0.6-0.9,1-1.5,1.2h-16.4c-1.2,0-2.2-0.6-2.9-1.5
	c-0.7-1.2-0.5-3.6,0-5.6c0.7-2,3.6-14.4,3.6-14.4s-1.9-0.2-2.5-0.3c-0.8-0.4-1.4-1.1-1.9-1.9c-0.4-0.6-0.7-1.2-1-1.9h6.5
	L346.1,128.9z"/>
<path d="M365.8,160.6l5.4-21.4c0.1-0.9,0.4-1.9,0.9-2.7c0.6-0.9,1.7-1.5,2.9-1.4c1.9,0,7.5,0.2,7.5,0.2s-4.6,18.8-4.9,20
	s-0.5,3.1-1.2,3.9c-0.5,0.7-0.9,1.5-3,1.5C371.1,161,365.8,160.6,365.8,160.6z"/>
<path d="M400.3,135.3c0.4,0.8,0.8,1.5,1.4,2.2c0.7,1,1.2,1.7,1.9,1.9h8.7c1.5,0,5.6-0.3,7,0.2c1.2,0.3,2,0.9,1.5,2.5
	c-0.5,1.4-1.6,2.4-3,2.7h-9c-1.5,0-6.8-0.3-9.5,0.5s-3.4,1.7-4.6,5.1c-0.9,2-1.4,4.2-1.5,6.4c-0.2,0.7-0.3,2.4,0.5,3.1
	c1,0.7,3,0.9,6.3,0.9h9.7c1,0,2.2,0.3,3.9-2l0.9-1.4c0,0-5.1,0.2-6.1,0.2c-1.2,0-2.4-0.3-3.4-1c-0.3-0.3-0.7-1.4-0.2-3.6
	c0.5-2,0.7-3.6,1.9-4.4c1-1,3.9-1,5.6-1h7.3l-3.2,13.2h10.7c0,0,4.2-16.7,4.2-17.4c0.2-0.7,1.2-5.3,0-6.8c-1.4-1.5-5.8-1.4-8-1.4
	H400.3z"/>
<path d="M466.6,135.2h-20.9c-1.9-0.1-3.7,0.3-5.3,1.4c-2,1.4-3.5,3.4-4.1,5.8c-0.9,2.7-2.4,9.5-2.7,10.9c-0.4,1.6-0.6,3.3-0.3,4.9
	c0.5,1.4,1.5,2.7,4.8,2.7h16.3c0.8,0,2.4,0.2,3.4-0.7c0.7-0.8,1.3-1.7,1.7-2.7c0,0-9.7,0-11.2-0.2s-3.2-0.3-3.7-1.2
	c-0.3-0.9,0.2-3.7,0.7-5.4c0.3-1.7,1.9-7.6,2-8.1c0.2-0.9,0.5-1.8,1-2.5c0.8-0.6,1.9-0.9,2.9-0.9h12c1-0.1,1.9-0.8,2.4-1.7
	C465.9,136.7,466.5,135.2,466.6,135.2L466.6,135.2z"/>
<path d="M473.2,124.6l-9,36l10.9,0.2l2.5-10.9l6.8-4.2l4.8,15.1h9.7l-6.8-20.7c1.3-0.6,2.4-1.4,3.2-2.6c0.9-1.4,1.7-3,2.2-4.6
	l-18.1,10.3l4.8-18.8L473.2,124.6z"/>
<path d="M382.3,140.9c0.7-1.6,1.8-3,3.2-4.1c1.9-1.2,3.7-1.5,6.6-1.5s4.4-0.2,4.4-0.2c-0.4,1-0.9,1.9-1.4,2.9
	c-0.7,0.9-1.4,1.7-2.4,1.7h-5.9C385.4,139.9,382.8,140.4,382.3,140.9z"/>
<path d="M407.9,80.9c15.4-3.2,26-15.6,38.2-29c9-9.8,15.6-16.6,27.1-17.7c0.9-0.1,1.7-0.2,2.5-0.2h1.4c8.2,0.2,15.9,3.9,21.2,10.2
	c-4.9-3.9-11.1-5.7-17.3-5.1c-13.8,1.2-24,13.5-22.8,27.3c1.2,13.7,13.3,23.9,27,22.8c4.5-0.3,8.8-1.9,12.4-4.6
	c-9.3,9.3-15.8,8.7-23.3,9.8c-16.6,2.9-27.7,0.8-45.6,12.4c-13.2,9.8-12.2,12.9-19.3,15.6c-3.9,1.5-8.1,1.9-12.2,1l2.2-0.2
	c10.4-1.2,17.9-10.5,16.7-20.9c-1.1-10-9.9-17.4-19.9-16.8c-4.9,0.4-9.4,2.7-12.5,6.4C388.7,82.5,397.7,81.1,407.9,80.9z"/>
</svg>
